<svg height="24" viewBox="0 0 636 115" fill="none" xmlns="http://www.w3.org/2000/svg">
<path d="M31.924 0.148879C16.2476 2.52307 4.34746 13.6274 0.571211 29.4306C0.198555 30.9145 0.124023 32.3736 0.124023 36.85C0.124023 41.8457 0.173711 42.6618 0.720273 44.8876C1.91277 49.9328 4.34746 55.4478 6.08652 57.1295C6.90637 57.9209 7.10512 57.9951 8.47152 57.9951C9.81309 57.9951 10.0367 57.9209 10.5584 57.3026C11.4776 56.2639 11.6018 55.0768 10.9807 53.5682C10.459 52.3811 10.459 52.3317 10.9311 52.9252C11.2043 53.2715 11.4279 53.6177 11.4279 53.7166C11.4279 54.1123 12.9434 54.6564 14.0117 54.6564C16.1731 54.6564 17.5395 52.6037 16.7942 50.4274L16.4215 49.4134L17.1171 50.2048C17.6637 50.8725 18.0115 51.0209 19.0301 51.1198C20.5207 51.2682 21.2164 50.9715 21.8623 49.8833C22.5331 48.7951 22.4834 48.0037 21.6387 45.8768C19.4525 40.4607 19.6015 33.8822 21.9865 29.208C24.0734 25.1521 27.7254 22.036 31.924 20.7005C33.3401 20.2553 34.2345 20.1564 36.7686 20.1811C40.2964 20.1811 42.0603 20.6016 45.2403 22.1844C48.3457 23.7177 52.0475 27.8478 53.1903 31.0381C53.389 31.5328 53.6623 32.0521 53.8362 32.2005C54.2089 32.4973 54.0598 32.5467 61.7365 30.1725C64.4693 29.3317 67.9971 28.2682 69.5623 27.7736C71.1275 27.3037 72.5684 26.7596 72.7671 26.5865C73.0404 26.3145 72.9907 25.9682 72.4193 24.4349C67.7487 12.1188 57.7118 3.48759 44.7931 0.717696C42.8801 0.297266 41.3398 0.17361 37.5139 0.124148C34.8556 0.0746856 32.3464 0.0994168 31.924 0.148879Z" fill="#512B2B"/>
<path d="M254.524 6.28139C248.81 7.66633 244.661 13.9975 245.655 19.8341C246.102 22.3567 247.245 24.5577 249.033 26.3631C251.692 29.0093 254.524 30.0728 258.35 29.8502C261.828 29.6524 264.288 28.5147 266.648 25.9921C272.685 19.562 269.356 8.55666 260.735 6.30612C259.021 5.86096 256.288 5.86096 254.524 6.28139Z" fill="#512B2B"/>
<path d="M165.956 60.2206V112.774L175.72 112.725L185.458 112.651L185.583 89.8981L185.707 67.1454L186.353 65.3895C187.297 62.8669 187.645 62.2733 189.21 60.6163C190.775 58.9099 193.16 57.5991 195.446 57.1292C197.458 56.7088 202.278 56.9314 203.719 57.5249C206.749 58.7368 209.01 60.8389 210.302 63.6335C211.768 66.8239 211.743 66.2551 211.892 90.3927L212.041 112.651H221.73H231.419V87.9196C231.419 61.5561 231.419 61.8282 230.177 57.4755C227.668 48.8938 221.979 42.9583 213.904 40.5594C204.588 37.7895 193.21 39.8421 187.173 45.3325L185.583 46.7916L185.533 27.2787L185.458 7.79053L175.72 7.71634L165.956 7.66688V60.2206Z" fill="#512B2B"/>
<path d="M284.014 60.1467L284.088 112.651L293.38 112.725C300.659 112.775 302.721 112.7 302.895 112.478C302.994 112.305 303.094 110.499 303.094 108.471V104.787L303.64 105.504C307.988 111.316 315.342 114.506 324.211 114.506C338.496 114.481 349.949 106.518 355.141 93.0145C358.918 83.1467 358.918 69.965 355.141 60.0973C350.918 49.0919 342.794 42.1424 331.515 39.8919C328.434 39.2983 321.453 39.2983 318.447 39.8919C312.708 41.0543 308.211 43.3048 304.907 46.693L303.342 48.2758V28.3672C303.342 17.4112 303.267 8.28544 303.193 8.06286C303.069 7.71663 301.976 7.66716 293.504 7.66716H283.964L284.014 60.1467ZM326.273 57.5994C332.335 59.7263 336.111 64.2768 337.775 71.4736C338.372 73.9467 338.347 79.7586 337.775 82.3553C336.111 89.8489 331.714 94.8198 325.205 96.6005C322.944 97.2188 318.447 97.2188 316.261 96.6005C310.994 95.0919 306.398 90.937 304.51 85.9166C303.193 82.4543 302.994 81.2424 302.994 76.9145C302.994 73.2048 303.044 72.6112 303.665 70.3854C304.684 66.7252 306.025 64.351 308.559 61.8037C310.944 59.4295 312.957 58.2424 316.012 57.4016C318.522 56.7091 324.037 56.808 326.273 57.5994Z" fill="#512B2B"/>
<path d="M616.796 7.83958C616.696 7.91378 616.622 16.9407 616.622 27.8966V47.7804L615.603 46.4944C613.094 43.3288 608.15 40.831 602.585 39.9407C599.628 39.446 593.517 39.4708 590.66 39.9654C581.344 41.5482 573.89 46.4202 568.375 54.4579C567.257 56.1149 564.673 61.3826 564.201 62.9407C564.052 63.4847 563.754 64.474 563.555 65.1665C563.357 65.8342 562.959 67.6149 562.661 69.1235C561.941 72.7837 561.891 80.4998 562.562 84.2095C565.369 100.013 575.406 110.894 589.915 113.887C592.672 114.456 598.411 114.654 601.268 114.258C607.678 113.392 613.094 110.4 616.572 105.75L617.118 105.033V108.916V112.774H626.559H636V60.2202V7.66646H626.485C621.243 7.66646 616.87 7.74066 616.796 7.83958ZM604.821 57.7471C613.765 60.6407 618.659 70.4095 616.646 81.3901C615.752 86.2374 613.963 89.6998 610.833 92.6428C607.628 95.66 604.001 97.045 599.355 97.045C594.337 97.0202 590.933 95.6353 587.554 92.2718C585.791 90.5159 585.219 89.7245 584.25 87.7955C582.486 84.2095 581.989 81.86 581.989 76.9138C581.989 73.2288 582.039 72.6106 582.66 70.3847C584.051 65.3396 586.71 61.6299 590.536 59.3299C591.927 58.489 595.231 57.2772 596.871 57.0299C598.759 56.7579 602.858 57.1041 604.821 57.7471Z" fill="#512B2B"/>
<path d="M440.902 20.2054C440.802 20.2796 440.728 25.0775 440.728 30.8399V41.3011H434.268H427.809L427.859 49.8829L427.933 58.4893L434.318 58.5635L440.703 58.613L440.778 77.6065C440.877 96.5259 440.877 96.5753 441.448 98.5538C443.833 106.913 449.523 111.933 458.268 113.417C462.665 114.159 470.689 113.64 473.596 112.428L474.515 112.057L474.466 104.069L474.391 96.0807L472.776 96.2044C471.882 96.2786 469.87 96.328 468.304 96.3033C465.895 96.3033 465.249 96.2044 464.205 95.7345C462.516 94.9925 461.448 93.9044 460.802 92.2721C460.23 90.8872 460.23 90.7882 460.156 74.7624L460.081 58.613L467.236 58.5635L474.391 58.4893L474.466 49.8829L474.515 41.3011H467.311H460.106V30.6667V20.0323H450.591C445.349 20.0323 440.976 20.1065 440.902 20.2054Z" fill="#512B2B"/>
<path d="M116.219 39.3224C104.17 40.831 93.7104 48.003 88.369 58.3654C86.4312 62.0998 85.5616 64.6224 84.543 69.2471C83.8971 72.2396 83.8971 81.8105 84.543 84.7041C85.5616 89.2546 86.4809 91.8267 88.369 95.4869C93.4371 105.305 103.101 112.255 114.654 114.406C118.43 115.123 125.858 115.049 129.535 114.283C136.541 112.823 142.181 109.93 146.677 105.503C150.056 102.189 152.714 98.232 154.23 94.2503C155.298 91.5052 155.397 90.8374 154.851 90.5654C153.882 90.046 138.578 85.0503 138.305 85.1492C138.131 85.2234 137.734 85.9159 137.411 86.7073C134.802 93.0632 128.914 96.946 121.834 96.946C113.933 96.946 107.374 92.2965 104.816 84.9019C103.449 80.9202 103.226 74.9353 104.319 70.8546C106.256 63.5836 111.225 58.8353 118.306 57.4998C120.84 57.0299 122.405 57.0299 124.989 57.5245C130.131 58.489 133.585 61.2095 136.268 66.403C136.765 67.3428 136.243 67.4912 147.199 63.6826C150.205 62.6439 152.938 61.7041 153.286 61.6052C154.279 61.3084 154.205 60.3933 152.963 57.7718C148.392 48.1514 140.392 42.0922 129.311 39.7922C126.504 39.2234 119.126 38.9514 116.219 39.3224Z" fill="#512B2B"/>
<path d="M389.798 39.3473C386.121 39.8172 381.302 41.5731 378.32 43.5269C373.128 46.9151 369.625 51.614 368.134 57.1785C367.339 60.1215 367.364 65.3151 368.159 68.1344C369.874 74.243 373.55 78.4968 379.836 81.6129C382.569 82.9731 384.631 83.5914 392.531 85.4215C396.282 86.3118 399.81 87.2022 400.357 87.4247C403.909 88.9333 405.425 91.8022 404.332 94.9925C403.139 98.4796 398.618 100.409 393.326 99.7161C387.612 98.9495 384.109 95.9817 382.767 90.8129C382.594 90.1204 382.345 89.428 382.196 89.3043C382.072 89.1559 381.128 89.2548 379.861 89.5516C378.693 89.8237 377.029 90.1699 376.134 90.3677C371.96 91.2333 366.048 92.5441 365.899 92.6677C365.576 92.8409 365.675 94.1516 366.172 95.9075C368.358 103.822 374.097 109.806 382.345 112.848C386.544 114.406 389.649 114.876 395.637 114.852C401.425 114.827 403.636 114.505 407.711 113.022C416.456 109.881 422.294 102.808 423.337 94.1269C424.48 84.6054 419.983 76.5925 411.04 72.1409C407.686 70.4839 405.524 69.8409 397.574 68.1097C393.574 67.2441 389.823 66.329 389.252 66.0817C385.401 64.3753 384.432 60.4183 387.065 57.129C388.159 55.7688 390.121 54.7301 392.531 54.2602C394.469 53.8893 394.842 53.8893 396.829 54.2355C398.046 54.4581 399.661 54.928 400.431 55.2989C402.742 56.4118 404.68 58.6871 405.673 61.3828C405.822 61.7785 406.121 62.0753 406.369 62.0753C406.617 62.0753 408.878 61.2839 411.412 60.3194C413.946 59.3548 417.176 58.1183 418.617 57.5989C420.058 57.0548 421.35 56.4366 421.524 56.2387C421.872 55.7688 421.524 54.6559 420.232 52.2323C416.406 44.986 408.978 40.4108 399.413 39.3473C396.68 39.0258 392.183 39.0505 389.798 39.3473Z" fill="#512B2B"/>
<path d="M513.768 39.2234C510.241 39.6686 506.067 40.9051 502.713 42.5374C498.937 44.3675 496.527 46.0739 493.372 49.2148C487.956 54.5815 484.801 60.5417 483.037 68.7524C482.391 71.7696 482.391 81.7363 483.037 84.9514C485.124 95.4374 490.341 103.5 498.489 108.866C502.614 111.587 507.135 113.392 512.402 114.406C515.532 115.024 523.706 115.024 526.687 114.431C533.991 112.947 539.73 110.078 544.127 105.726C546.984 102.906 549.792 98.9987 549.792 97.8858C549.792 97.3664 549.146 97.0202 544.575 95.0911C542.736 94.2997 540.525 93.36 539.68 92.9643C534.662 90.689 534.19 90.5901 533.395 91.8761C532.625 93.1127 530.14 95.289 528.476 96.1546C525.942 97.5148 523.507 98.0342 519.855 98.0342C516.153 98.0342 513.942 97.5395 511.085 96.1051C506.141 93.5825 502.589 88.76 501.943 83.6406L501.769 82.3546H527.109C550.239 82.3546 552.5 82.3299 552.798 81.9589C553.344 81.2911 553.419 74.0449 552.922 70.0137C552.226 64.3997 551.158 60.6901 549.071 56.461C544.624 47.5578 536.873 41.8944 526.29 39.817C523.656 39.2976 516.079 38.9514 513.768 39.2234ZM522.588 55.5213C527.134 56.461 531.035 59.6019 532.749 63.6578C533.097 64.4739 533.892 67.8621 533.892 68.5051C533.892 68.6782 528.873 68.7524 518.017 68.7524H502.142L502.489 67.1944C502.961 65.1911 503.433 63.9793 504.452 62.3223C506.539 58.9342 510.489 56.189 514.389 55.3976C516.054 55.0761 520.749 55.1256 522.588 55.5213Z" fill="#512B2B"/>
<path d="M35.6509 41.4248C34.1602 42.884 35.7999 45.3571 37.688 44.4668C38.0607 44.2937 38.5327 43.8238 38.7066 43.4528C39.601 41.5732 37.1166 39.941 35.6509 41.4248Z" fill="#512B2B"/>
<path d="M42.1103 41.5239C41.042 41.9691 40.5451 43.2056 40.9923 44.2691C41.2905 45.011 42.7314 45.7529 43.8494 45.7529C45.5387 45.7529 46.4331 43.3787 45.1909 42.1916C44.545 41.5486 42.9053 41.2024 42.1103 41.5239Z" fill="#512B2B"/>
<path d="M248.064 41.5977C247.99 41.7708 247.965 57.8214 247.99 77.2848L248.064 112.65H257.753H267.442V77.0375V41.4246L257.803 41.3504C250.226 41.3009 248.139 41.3504 248.064 41.5977Z" fill="#512B2B"/>
<path d="M48.7431 43.6749C48.296 43.8728 47.6997 45.134 47.6997 45.876C47.6997 46.9642 48.1469 47.4588 49.9356 48.3491C52.1964 49.4867 53.3641 49.5115 54.2584 48.448C55.4509 47.0383 54.8299 45.2577 52.7678 44.2685C51.625 43.6996 49.4139 43.3781 48.7431 43.6749Z" fill="#512B2B"/>
<path d="M35.6506 48.8442C34.4333 50.0312 35.2531 51.9355 36.9922 51.9355C38.5076 51.9355 39.3523 50.5753 38.6567 49.2646C38.0356 48.0528 36.6195 47.8549 35.6506 48.8442Z" fill="#512B2B"/>
<path d="M56.8173 48.9669C56.0968 49.5357 55.7987 50.5497 56.0472 51.539C56.1217 51.9099 57.1154 52.9981 58.4073 54.1605C60.9414 56.411 61.7115 56.6336 63.0531 55.5207C64.494 54.3088 64.3201 52.825 62.5314 50.9701C60.2706 48.6207 58.1837 47.9035 56.8173 48.9669Z" fill="#512B2B"/>
<path d="M41.6875 49.067C40.7185 49.8089 40.5943 51.4907 41.439 52.2573C42.085 52.8261 44.4948 53.667 45.4637 53.667C46.5071 53.6423 47.0785 53.2466 47.4512 52.3068C47.9729 50.9466 47.0537 49.6605 45.1159 49.0917C43.6004 48.6466 42.2589 48.6218 41.6875 49.067Z" fill="#512B2B"/>
<path d="M23.8251 51.2181C23.1295 51.4654 22.6077 52.2321 22.5581 53.0729C22.4338 54.5568 24.1481 56.2138 27.5517 57.8213C30.5329 59.231 32.5204 58.9837 32.9179 57.1288C33.1912 55.9417 32.5204 55.1009 30.5081 54.0622C29.5143 53.5181 28.0734 52.6772 27.3281 52.1826C25.7877 51.1439 24.7692 50.8718 23.8251 51.2181Z" fill="#512B2B"/>
<path d="M50.1344 52.5784C48.9916 53.1967 48.5941 54.5322 49.24 55.7193C49.5879 56.3623 49.6872 56.4859 51.5257 57.8709C54.2336 59.9483 54.5069 60.0967 55.4013 60.0967C56.5441 60.0967 57.2894 59.5773 57.6372 58.5139C57.9602 57.5494 57.5875 56.4365 56.6683 55.4719C55.6497 54.4085 53.5132 52.9246 52.4449 52.5537C51.1282 52.1085 50.9791 52.1085 50.1344 52.5784Z" fill="#512B2B"/>
<path d="M17.0177 55.497C16.2972 56.2142 16.0239 57.1292 16.2724 58.0443C16.6202 59.5034 21.1169 62.8174 22.7069 62.8174C23.6758 62.8174 24.7938 61.9271 24.9677 61.0367C25.1913 59.8496 24.7938 59.0582 23.4274 57.9701C22.7814 57.4507 21.6386 56.5604 20.8933 55.9669C19.2785 54.6808 18.0114 54.5324 17.0177 55.497Z" fill="#512B2B"/>
<path d="M35.6506 56.263C34.9053 57.0049 34.8556 57.8457 35.5512 58.7113C36.3959 59.7748 38.0107 59.5769 38.6567 58.3156C39.6504 56.4113 37.1909 54.7049 35.6506 56.263Z" fill="#512B2B"/>
<path d="M42.3338 56.3871C41.6133 56.6838 40.9922 57.5989 40.9922 58.3656C40.9922 59.3301 41.6381 60.0473 43.3027 60.8634C44.1473 61.3086 45.6131 62.1494 46.5572 62.7924C48.6689 64.2021 49.8863 64.3258 50.8303 63.2376C51.6253 62.2978 51.6253 61.1107 50.7806 60.1215C49.9111 59.0828 46.905 57.2774 45.0417 56.6591C43.3523 56.0903 43.1039 56.0655 42.3338 56.3871Z" fill="#512B2B"/>
<path d="M64.2211 57.1039C62.7802 57.6975 62.2087 59.7254 63.0037 61.4566C63.2522 62.0007 63.5006 62.5448 63.5503 62.6932C63.6248 62.8168 63.3267 62.4706 62.9044 61.9018C61.9603 60.6158 61.4386 60.3437 60.1219 60.3437C57.7617 60.3437 56.2959 62.4706 57.1406 64.6964L57.3891 65.3394L56.5195 64.5728C55.7991 63.9545 55.4264 63.8061 54.5072 63.8061C53.5383 63.8061 53.2402 63.9297 52.5197 64.647C51.4266 65.7351 51.3769 66.9717 52.4203 69.3953C54.3084 73.8717 54.3581 80.376 52.5445 84.6545C50.9794 88.3642 47.8242 91.7276 44.3213 93.3599C41.5884 94.6459 40.6195 94.8437 37.0172 94.819C34.0608 94.7943 33.4397 94.7201 31.6758 94.1265C26.9803 92.5437 23.1792 89.1308 21.0923 84.6297C20.5458 83.5168 19.9992 82.6018 19.8253 82.6018C19.6763 82.6018 16.7944 83.4426 13.4405 84.4814C10.0866 85.5201 6.03704 86.7319 4.47188 87.2265C0.844693 88.3147 0.770162 88.3889 1.34157 90.0706C2.13657 92.3459 4.09922 96.3029 5.46563 98.3308C11.1548 106.814 19.3036 112.254 29.5641 114.431C31.2286 114.777 32.8186 114.876 37.1414 114.876C41.9114 114.876 42.9052 114.802 44.992 114.332C59.3517 111.018 70.2084 99.9136 73.463 85.1986C74.0841 82.3792 74.0841 73.9211 73.463 71.1018C71.9972 64.5233 68.9662 58.0685 66.9539 57.2276C66.0098 56.8566 64.9912 56.8072 64.2211 57.1039Z" fill="#512B2B"/>
<path d="M11.2045 59.2059C10.4344 59.6264 9.96234 60.5167 9.9375 61.4812C9.9375 62.5446 11.1052 64.0532 12.9436 65.4135C14.2106 66.3285 14.6578 66.5264 15.577 66.5264C17.0925 66.5264 17.8875 65.735 17.8875 64.1769C17.8875 63.0887 17.813 62.9898 15.9994 61.2586C14.9808 60.2941 13.8877 59.3543 13.5895 59.1812C12.8691 58.7855 11.9498 58.7855 11.2045 59.2059Z" fill="#512B2B"/>
<path d="M27.1539 61.7046C26.4831 62.1745 26.2098 63.4358 26.5577 64.3509C26.8806 65.2412 28.5452 66.0573 30.2842 66.2057C31.4519 66.3046 31.7748 66.2552 32.3711 65.7853C32.9177 65.3649 33.0419 65.0434 33.0419 64.2025C33.0419 62.8917 32.6444 62.496 30.6817 61.8283C28.9427 61.2347 27.8744 61.21 27.1539 61.7046Z" fill="#512B2B"/>
<path d="M35.5512 63.7071C34.8556 64.5727 34.9053 65.4136 35.6506 66.1555C36.2468 66.7491 37.0667 66.9222 37.8865 66.6254C38.4828 66.3781 39.0293 65.1415 38.8554 64.4243C38.5076 63.0147 36.4456 62.5695 35.5512 63.7071Z" fill="#512B2B"/>
<path d="M19.7502 66.4278C18.9055 67.3182 18.9055 68.7031 19.7502 69.6924C20.5204 70.6074 22.5824 71.4977 23.924 71.5225C24.7686 71.5225 25.0668 71.3988 25.6382 70.7558C26.9797 69.2472 26.3586 67.7881 23.8246 66.5268C21.9365 65.5623 20.5701 65.5375 19.7502 66.4278Z" fill="#512B2B"/>
<path d="M28.794 69.9647C28.1232 70.6572 28.0238 70.8798 28.1481 71.6712C28.3468 72.8088 29.0176 73.3776 30.4585 73.6002C31.3778 73.7239 31.7256 73.6744 32.2473 73.2787C32.8187 72.8583 32.9181 72.5862 32.9181 71.597C32.9181 70.1873 32.3218 69.6185 30.6324 69.3464C29.6884 69.1981 29.5145 69.2722 28.794 69.9647Z" fill="#512B2B"/>
<path d="M36.3709 70.484C35.6752 70.756 35.0293 71.6711 35.0293 72.413C35.0293 73.6001 36.6193 74.5151 37.8863 74.0452C38.4577 73.8227 39.0291 72.5614 38.8552 71.8689C38.5819 70.756 37.3646 70.0883 36.3709 70.484Z" fill="#512B2B"/>
</svg>
