<svg xmlns="http://www.w3.org/2000/svg" height="25" viewBox="0 0 600.1 78.1">
  <g id="skanetrafiken-vector-logo" transform="translate(-26.7 -288.3)">
    <path id="Path_15" data-name="Path 15" d="M468,298.5a7.4,7.4,0,1,0-7.5,7.3,7.621,7.621,0,0,0,7.5-7.3M48.4,365.9c13.6,0,25-8.3,25-22,0-13.1-11.1-17.8-19.3-21.3-4.7-2-10-4.1-10-9.5,0-5.3,5.5-7.7,9.6-7.7a15.968,15.968,0,0,1,11.9,4.8l6.5-7.9c-4-4.4-11-7.1-19.1-7.1-11.5,0-23.2,5.9-23.2,19.1,0,12.3,9.1,16,17.3,19.4,5.5,2.2,11.9,4.6,11.9,11.6,0,6-5.8,9.8-10.9,9.8-7.8,0-12.1-3.4-14.4-6.6l-7,9.6c5.2,5,12.9,7.8,21.7,7.8m153.2-53H189.7v52h13.1V332.3c0-5.6,3.4-9.7,9.8-9.7,4.7,0,6.6,1.9,6.6,6.4v35.8h13V326.2c0-9.2-4.8-14.4-14-14.4-10.7,0-15.4,7-15.4,7Zm145.3,23.2c0-9,5.4-11.6,10.2-11.6a17.2,17.2,0,0,1,4.8.8V312.1a21.749,21.749,0,0,0-2.5-.1c-6.6,0-10.8,4.8-13,10.2l-.6-9.4H334v52h13V336.1Zm61.4-10.2c0-10.6-9.5-14.3-20.7-14.3-13.1,0-19.7,6.8-19.7,6.8l5.2,7.8a21.064,21.064,0,0,1,13.2-5.2c4,0,9.1,1.4,9.1,6.6v4.1l-11.7,1.8c-9.2,1.5-18.1,6-18.1,17.2,0,9.8,6.7,15.1,14.2,15.1a21,21,0,0,0,15.5-6.7l.6,5.8h12.4Zm-22.7,30c-4.6,0-7.6-2-7.6-6.7,0-7.6,6.8-9,17.3-9.7v7.7c0,5.3-3.9,8.7-9.7,8.7m68.5,9h13v-52H434.8v-5.6c0-4.6,2.8-7.1,7.8-7.1a18.706,18.706,0,0,1,3.5.4v-9a34.969,34.969,0,0,0-7.2-.7c-8.5,0-17.1,4.8-17.1,15.1v6.8h-6.7V322h6.7v42.8h13V322h19.3v42.9Zm52.7-27.6L525.7,313H511.3l-18.9,25,18.5,27h15.8Zm-14.4-41.6h-13v69.2h13ZM311.6,322.1h11.9v-9.2H311.6V297l-12.9,7.2v8.7h-6.4v9.2h6.4v28.8c0,12.3,7.9,15.2,14.5,15.2a33.748,33.748,0,0,0,11.3-1.9V355a12.163,12.163,0,0,1-5.2,1.1c-2.8,0-7.8-.4-7.8-7.8V322.1ZM158.8,288.3c-6.1,0-10.6,3.9-10.6,9.5s4.5,9.1,10.6,9.1,10.6-3.9,10.6-9.5-4.5-9.1-10.6-9.1m0,13.9c-3.1,0-5.2-1.8-5.2-4.6s2.1-4.6,5.2-4.6,5.2,1.8,5.2,4.6-2.1,4.6-5.2,4.6m415.4,40s.2-2.5.2-5.2c0-11.4-4.7-25.4-20.8-25.4-17.8,0-25.1,12.9-25.1,27.9,0,14.1,8.3,26.9,25.1,26.9,13.5,0,20.6-8.3,20.6-8.3l-6.1-7.4a18.615,18.615,0,0,1-12.9,5.6c-7.2,0-12.9-4.6-12.9-14.1Zm-32-8.1c0-7.4,3.1-13.2,10.6-13.2,8.1,0,9.2,6.3,9.2,13.2Zm54-21.2H584.3v52h13.1v-33c0-5.6,3.4-9.7,9.8-9.7,4.7,0,6.6,1.9,6.6,6.4v36.3h13V326.3c0-9.2-4.8-14.4-14-14.4-10.8,0-15.4,7-15.4,7ZM286.9,342.2s.2-2.5.2-5.2c0-11.4-4.7-25.4-20.8-25.4-17.8,0-25.1,12.9-25.1,27.9,0,14.1,8.3,26.9,25.1,26.9,13.5,0,20.6-8.3,20.6-8.3l-6.1-7.4a18.615,18.615,0,0,1-12.9,5.6c-7.2,0-12.9-4.6-12.9-14.1Zm-32-8.1c0-7.4,3.1-13.2,10.6-13.2,8.1,0,9.2,6.3,9.2,13.2Zm-144.1,3.2L129.7,313H115.3L96.4,338l18.5,27h15.8ZM96.3,295.7h-13v69.2h13Zm81,30.2c0-10.6-9.5-14.1-20.7-14.1-13.1,0-19.7,6.6-19.7,6.6l5.2,7.8a21.064,21.064,0,0,1,13.2-5.2c4,0,9.1,1.4,9.1,6.6v4.1l-11.7,1.8c-9.2,1.5-18.1,6-18.1,17.2,0,9.8,6.7,15.1,14.2,15.1a21,21,0,0,0,15.5-6.7l.6,5.8h12.4Zm-22.7,29.9c-4.6,0-7.5-1.9-7.5-6.6,0-7.6,6.7-9,17.2-9.7v7.7c0,5.3-3.9,8.6-9.7,8.6" fill="#512B2B"/>
  </g>
</svg>
