<svg height="32" viewBox="0 0 449 129" fill="none" xmlns="http://www.w3.org/2000/svg">
<path d="M90.2516 80.0371C79.0026 72.7961 69.6926 71.3741 64.0036 70.4691L63.2276 70.3401C56.2456 69.3061 51.9786 66.0721 49.5216 63.6151C45.6426 59.9951 28.1866 48.8751 24.4366 46.5481C31.2906 37.4971 39.9536 27.2821 51.8486 19.6531C53.7876 18.3601 56.3746 16.9381 59.0896 16.6791C61.5456 16.4211 63.4856 17.3251 65.9426 19.7831C66.4596 20.3001 67.1066 20.1701 68.1406 19.6541L69.0456 19.2661L68.3996 18.4911C68.2706 18.2321 64.7786 12.6721 59.6076 12.4141C57.2806 12.2841 55.2116 12.8021 53.0136 13.9661C38.9186 21.3351 28.8336 32.9731 20.6876 43.3171C19.6536 44.6091 19.2656 45.7741 19.5236 46.9381C19.7816 48.1011 20.4286 49.0061 21.8506 49.9121L23.2726 50.8171C28.3156 53.9201 43.5726 63.4881 46.2886 65.9451C52.2366 71.3761 55.9866 73.1861 63.3566 74.3491C74.3466 76.1601 83.7856 81.4601 93.0956 87.4091L98.1386 90.6411H98.2676L100.207 87.5371L99.4306 86.8911C98.7846 86.3731 94.6476 82.8821 90.2516 80.0371Z" fill="#512B2B"/>
<path d="M96.0699 94.5182C96.0699 94.5182 94.0019 97.3632 91.6739 99.9492C87.6649 104.475 81.5879 105.509 76.0279 102.664C68.2699 98.7852 62.3209 92.5792 56.8909 82.6232C56.7619 82.2352 56.5029 81.9772 56.3739 81.5892C55.3399 79.5202 54.3049 77.7102 52.4949 77.3212C50.9439 77.0622 49.7799 78.7432 47.9699 81.0712C46.0309 83.7872 43.7029 87.0182 40.8579 87.1482C40.7289 87.1482 40.5989 87.1482 40.4699 87.1482C34.0049 87.1482 26.3769 78.2262 23.2729 66.9772C22.1089 62.4512 21.0749 57.7972 21.0749 57.7972L20.2989 54.3052L20.4279 54.6932C20.4279 54.6932 19.6519 56.5042 19.5229 58.1842C18.8769 65.0382 20.2989 71.8902 23.6609 78.2262C27.0229 84.5622 31.9359 89.0882 37.3669 91.0272C44.6079 93.6142 50.1669 85.9842 52.3659 82.4932C54.3049 86.2432 59.2189 95.2952 66.3309 101.501C72.0199 106.414 77.7089 109.001 82.7519 109.001C85.5969 109.001 88.3129 108.226 90.5099 106.544C96.0699 102.147 96.0699 94.5182 96.0699 94.5182Z" fill="#512B2B"/>
<path d="M63.3584 39.3071L63.4864 41.7641H64.3924C64.3924 41.7641 69.3054 41.6341 73.3144 41.8931C78.8744 42.2811 81.5894 44.0911 84.3044 49.2641C87.4084 55.2111 100.208 80.9431 100.337 81.2011L100.725 81.9771L103.569 80.6841L103.311 79.9091C102.923 78.7441 100.854 72.9271 99.9494 71.1161C99.4324 70.0821 98.9144 68.7881 98.2684 67.4951V67.3661C94.5184 58.9621 88.8294 46.4201 83.5274 41.3771C78.7434 36.8521 70.0804 35.9461 63.7444 39.3081H63.3584V39.3071Z" fill="#512B2B"/>
<path d="M64.521 0C28.963 0 0 28.834 0 64.392C0 99.95 28.963 128.784 64.521 128.784C100.079 128.784 129.042 99.821 129.042 64.392C128.913 28.834 99.949 0 64.521 0ZM64.521 124.387C31.42 124.387 4.525 97.491 4.525 64.391C4.525 31.289 31.42 4.39502 64.521 4.39502C97.622 4.39502 124.517 31.289 124.517 64.391C124.516 97.492 97.622 124.387 64.521 124.387Z" fill="#512B2B"/>
<path d="M224.078 55.9873C224.078 55.9873 224.853 63.3573 215.027 63.3573C215.027 63.3573 205.588 62.9693 205.588 55.8573V36.5923H196.925V56.1163C196.925 56.7623 197.312 66.8473 210.502 70.7273V91.9323H219.166V70.7273C219.166 70.7273 232.742 67.6243 232.742 56.5043V36.5923H224.079V55.9873H224.078Z" fill="#512B2B"/>
<path d="M261.575 35.5572C241.016 35.5572 241.792 54.6941 241.792 54.6941V91.8032H250.327V54.6941C250.327 42.6701 261.575 43.0572 261.575 43.0572C273.471 43.0572 272.954 55.0821 272.954 55.0821V91.8032H281.489V55.0821C281.489 35.4281 261.575 35.5572 261.575 35.5572Z" fill="#512B2B"/>
<path d="M354.803 35.5572C335.28 35.5572 335.666 53.7892 335.666 53.7892V91.9332H344.201V71.7622H365.664V91.9332H373.939V53.7892C373.94 34.7812 354.803 35.5572 354.803 35.5572ZM365.664 63.3572H344.201V53.7892C344.201 53.7892 344.07 43.0572 354.803 42.9282C354.803 42.9282 365.664 42.9282 365.664 53.7892V63.3572V63.3572Z" fill="#512B2B"/>
<path d="M430.573 35.5571C421.52 35.5571 416.735 41.6341 416.735 41.6341C411.565 35.2991 402.901 35.5571 402.901 35.5571C384.799 35.5571 384.799 53.5301 384.799 53.5301V91.9321H393.074V53.5301C393.074 43.0561 402.9 43.7031 402.9 43.7031C412.986 43.7031 412.339 53.5301 412.339 53.5301V91.9321H420.614V53.5301C420.614 53.5301 419.968 43.4451 430.7 43.7031C440.913 43.7031 440.397 53.5301 440.397 53.5301V91.9321H448.672V53.5301C448.415 35.8161 430.573 35.5571 430.573 35.5571Z" fill="#512B2B"/>
<path d="M319.501 65.1673L303.339 56.2462C303.339 56.2462 298.556 54.3063 298.944 50.1693C298.944 50.1693 299.202 44.9973 304.891 44.9973H324.028V36.5933C324.028 36.5933 309.546 36.5933 304.891 36.5933C296.745 36.5933 290.28 42.5403 290.28 50.0403C290.28 50.0403 290.149 59.3492 298.944 64.1342L313.684 71.6342C313.684 71.6342 318.596 73.5733 318.079 78.0983C318.079 78.0983 318.468 83.4002 312.003 83.6602H291.444V91.9343H312.003C312.003 91.9343 326.614 92.9692 327.001 78.2292C327.001 78.2262 327.779 69.4333 319.501 65.1673Z" fill="#512B2B"/>
<path d="M182.961 65.1673L166.798 56.2462C166.798 56.2462 162.014 54.3063 162.402 50.1693C162.402 50.1693 162.661 44.9973 168.35 44.9973H187.487V36.5933C187.487 36.5933 173.006 36.5933 168.35 36.5933C160.333 36.5933 153.739 42.6703 153.739 50.0403C153.739 50.0403 153.61 59.3492 162.402 64.1342L177.143 71.6342C177.143 71.6342 182.057 73.5733 181.539 78.0983C181.539 78.0983 181.927 83.4002 175.462 83.6602H154.904V91.9343H175.462C175.462 91.9343 190.073 92.9692 190.462 78.2292C190.46 78.2262 191.237 69.4333 182.961 65.1673Z" fill="#512B2B"/>
</svg>
