<svg height="30" viewBox="0 0 91 27" fill="none" xmlns="http://www.w3.org/2000/svg">
<g clip-path="url(#clip0)">
<path d="M31.6627 11.9355C32.3812 12.2534 33.156 12.4275 33.9426 12.4478C34.5361 12.4478 35.3473 12.2813 35.3473 11.5061C35.3473 10.1124 31.5811 9.9693 31.5811 7.24963C31.5811 5.52269 33.1064 4.8291 34.591 4.8291C35.4296 4.8393 36.2654 4.92677 37.0876 5.09037V6.72344C36.4007 6.4458 35.6702 6.28885 34.9288 6.25965C34.4976 6.25965 33.8358 6.44041 33.8358 6.99715C33.8358 8.30109 37.7356 8.46795 37.7356 11.2802C37.7356 12.1496 37.29 13.8806 34.2803 13.8806C33.4033 13.8826 32.5278 13.8107 31.6631 13.6658V11.9355" fill="#512B2B"/>
<path d="M38.5447 5.04297H40.9349L43.1456 11.3276H43.1724L45.3321 5.04297H46.8305L43.8472 13.6658H41.5936L38.5439 5.04297" fill="#512B2B"/>
<path d="M48.3823 5.04297H54.1432V6.4748H50.6352V8.57478H53.5235V9.86207H50.6354V12.2338H54.1307V13.6658H48.3825V5.04297" fill="#512B2B"/>
<path d="M56.4248 5.04297H58.3006L61.8769 10.2207H61.9033V5.04297H63.591V13.6658H61.7294L58.1378 8.48934H58.1121V13.6658H56.4248V5.04297Z" fill="#512B2B"/>
<path d="M65.8037 11.9355C66.5227 12.2535 67.2982 12.4276 68.0854 12.4478C68.6795 12.4478 69.4881 12.2813 69.4881 11.5061C69.4881 10.1124 65.7246 9.9693 65.7246 7.24963C65.7246 5.52269 67.2489 4.8291 68.7342 4.8291C69.5723 4.83949 70.4076 4.92695 71.2294 5.09037V6.72344C70.5421 6.44559 69.8111 6.28863 69.0693 6.25965C68.6381 6.25965 67.9788 6.44041 67.9788 6.99715C67.9788 8.30109 71.8787 8.46795 71.8787 11.2802C71.8787 12.1496 71.433 13.8806 68.4237 13.8806C67.5462 13.8827 66.6702 13.8108 65.805 13.6658V11.9355" fill="#512B2B"/>
<path d="M73.8615 5.04297H76.1146V9.18293H76.1282L79.0979 5.04297H80.851L78.139 8.78921L81.525 13.6658H78.8265L76.1281 9.53952H76.1144V13.6658H73.8613V5.04297" fill="#512B2B"/>
<path d="M85.5189 5.04297H87.7609L91 13.6658H88.7327L87.9221 11.4725H84.6164L83.793 13.6658H82.2808L85.5189 5.04297ZM87.4097 10.1124L86.2625 7.05697L85.1151 10.1124H87.4097Z" fill="#512B2B"/>
<path d="M47.7612 17H53.5225V18.4318H50.0152V20.5318H52.8891V21.8191H50.0152V24.1908H53.5101V25.6228H47.762V17" fill="#512B2B"/>
<path d="M31.6474 24.1064C32.3661 24.4246 33.1414 24.5987 33.9285 24.6187C34.5212 24.6187 35.3321 24.4522 35.3321 23.677C35.3321 22.2833 31.5801 22.1402 31.5801 19.4205C31.5801 17.6936 33.0916 17 34.5758 17C35.4139 17.0104 36.2492 17.0979 37.071 17.2613V18.8943C36.3878 18.6179 35.6614 18.461 34.924 18.4305C34.4804 18.4305 33.8191 18.6113 33.8191 19.168C33.8191 20.472 37.719 20.6388 37.719 23.4511C37.719 24.3205 37.2741 26.0515 34.2653 26.0515C33.3876 26.053 32.5115 25.9812 31.6461 25.8367V24.1064" fill="#512B2B"/>
<path d="M39.7703 17H43.5358C45.1022 17 46.0463 17.6076 46.0463 19.3011C46.0463 21.0209 44.9941 22.2851 43.1182 22.2851H41.8766V25.6228H39.7695V17H39.7703ZM41.8766 20.9952C42.6589 20.9952 43.8069 20.9012 43.8069 19.4804C43.8069 18.6936 43.2254 18.4318 42.5379 18.4318C42.315 18.4355 42.0932 18.4637 41.8766 18.516V20.9952Z" fill="#512B2B"/>
<path d="M55.9653 17.0005H58.2184V24.1908H62.0114V25.6228H55.9653V17" fill="#512B2B"/>
<path d="M26.1972 0H0V25.9315H4.63919C-0.131966 19.3816 2.50498 9.33834 7.31014 5.73902C7.88311 5.31035 7.9186 5.38902 7.69107 5.89654C0.966836 20.8963 17.4343 29.7894 24.1408 14.6889C24.2715 14.3915 24.4409 14.426 24.4265 14.735C24.1903 19.8299 22.5598 23.5015 20.315 25.9321H26.1957L26.1972 0ZM14.4478 20.3473C13.7564 20.3474 13.0804 20.1446 12.5055 19.7644C11.9305 19.3843 11.4823 18.8439 11.2176 18.2116C10.9529 17.5793 10.8835 16.8835 11.0183 16.2122C11.1531 15.5408 11.486 14.9242 11.9749 14.4402C12.4638 13.9561 13.0867 13.6265 13.7648 13.4929C14.443 13.3593 15.1459 13.4278 15.7847 13.6897C16.4236 13.9516 16.9696 14.3951 17.3537 14.9642C17.7379 15.5333 17.9429 16.2024 17.9429 16.8868C17.9429 17.8045 17.5747 18.6845 16.9193 19.3335C16.2639 19.9824 15.3749 20.3471 14.4478 20.3473Z" fill="#512B2B"/>
<path d="M14.4478 13.4268C13.7563 13.4266 13.0803 13.6294 12.5053 14.0096C11.9304 14.3898 11.4822 14.9302 11.2175 15.5625C10.9528 16.1948 10.8834 16.8906 11.0183 17.5619C11.1531 18.2333 11.486 18.8499 11.9749 19.3339C12.4638 19.818 13.0867 20.1476 13.7649 20.2812C14.443 20.4147 15.146 20.3462 15.7848 20.0843C16.4236 19.8224 16.9696 19.3788 17.3537 18.8097C17.7379 18.2406 17.9429 17.5715 17.9429 16.887C17.9427 15.9695 17.5744 15.0895 16.919 14.4406C16.2636 13.7917 15.3747 13.427 14.4478 13.4268Z" fill="white"/>
<path d="M24.1431 14.6884C17.4359 29.7889 0.96846 20.8958 7.69343 5.89604C7.92096 5.38851 7.88603 5.31057 7.3125 5.73851C2.50697 9.33784 -0.129603 19.3808 4.64155 25.931H20.3172C22.5627 23.501 24.1925 19.8294 24.4287 14.734C24.4424 14.4255 24.2725 14.3909 24.1431 14.6884Z" fill="white"/>
</g>
<defs>
<clipPath id="clip0">
<rect width="91" height="26.1463" fill="white" transform="translate(0 0.287109)"/>
</clipPath>
</defs>
</svg>
