<svg xmlns="http://www.w3.org/2000/svg" xmlns:xlink="http://www.w3.org/1999/xlink" height="32" viewBox="0 0 565.158 203.802">
  <defs>
    <linearGradient id="linear-gradient" x1="0.14" y1="0.787" x2="0.871" y2="0.214" gradientUnits="objectBoundingBox">
      <stop offset="0" stop-color="#84c44c"/>
      <stop offset="0.702" stop-color="#42a24f"/>
      <stop offset="1" stop-color="#008052"/>
    </linearGradient>
    <linearGradient id="linear-gradient-2" x1="0.743" y1="0.702" x2="0.23" y2="0.298" xlink:href="#linear-gradient"/>
  </defs>
  <g id="elkjop" transform="translate(-297 -203)">
    <path id="Path_16" data-name="Path 16" d="M6612.936,1199h-24.061a8.829,8.829,0,0,0-8.875,8.875v71.684h9c4.687,0,8.75-3.5,8.75-7.812v-56.56h16.062c7.5.688,12,4.875,12,12.062v.25c0,6.375-4.437,11.374-12,12.124h-.125a10.551,10.551,0,0,0-10.562,10.562v5.187h8l4-.125c16.249-1.312,28.749-10.812,28.749-28.124v-.25c0-16.437-11.625-27.874-30.874-27.874Z" transform="translate(-5890.333 -933.753)" fill="#512B2B"/>
    <g id="_334878552" transform="translate(444.992 264.573)">
      <path id="Path_17" data-name="Path 17" d="M2665.063,1207.75V1279.5h8.75c4.875,0,8.75-3.5,8.75-7.812V1199h-9.125a8.712,8.712,0,0,0-8.437,8.75Z" transform="translate(-2665 -1198.326)" fill="#512B2B"/>
      <path id="Path_18" data-name="Path 18" d="M3004.623,1203.016a8.658,8.658,0,0,0,.188-12.187l-.25-.25a8.718,8.718,0,0,0-12.187.25L2956,1229.2l36.373,38.373a8.776,8.776,0,0,0,12.187.25l.25-.25a8.657,8.657,0,0,0-.187-12.187l-25.374-26.186h0Z" transform="translate(-2937.813 -1188.218)" fill="#512B2B"/>
    </g>
    <path id="Path_19" data-name="Path 19" d="M3911.436,1209.75v43.06c0,9.312-4.125,13.374-11.062,13.374-4,0-7.125-1.375-10.687-4a8.178,8.178,0,0,0-5.312-1.812,8.363,8.363,0,0,0-8.375,8.5,8.975,8.975,0,0,0,3.313,6.812,33.911,33.911,0,0,0,21.311,7c8.75,0,16-2.562,20.936-7.5,4.813-4.812,7.562-12,7.562-21.5V1201H3920a8.818,8.818,0,0,0-8.625,8.875Z" transform="translate(-3355.324 -935.628)" fill="#512B2B"/>
    <path id="Path_20" data-name="Path 20" d="M7896.436,1776.124l-23.624,25.186c-14.312,14.312-16.749,32.561-16.749,39.623a15.225,15.225,0,0,0-.062,1.687v1.063a66.705,66.705,0,0,0,2.125,15.5l1.75,5.437,49.873-50.685a33.195,33.195,0,0,0-.062-47l-6.187-6.187-2.625-2.75A21.092,21.092,0,0,1,7896.436,1776.124Z" transform="translate(-7086.586 -1457.818)" fill="#512B2B"/>
    <path id="Path_21" data-name="Path 21" d="M7870.061,208.312a66.976,66.976,0,0,0,1.188,32.811c4.125,14.562,15.937,27.936,15.937,27.936l49.247,49.435a21.259,21.259,0,0,1,5.813,19.124h.063l2.188-2.437,6.312-6.25a32.951,32.951,0,0,0,9.562-20.311c.125-1,.125-2.062.188-3.062v-.25a33.292,33.292,0,0,0-9.75-23.374L7871.123,203Z" transform="translate(-7098.397)" fill="#512B2B"/>
    <path id="Path_22" data-name="Path 22" d="M1586.622,1263.434h-40.873V1199h-9.125a8.817,8.817,0,0,0-8.625,8.875v71.684h50.5a7.963,7.963,0,0,0,8.062-7.875v-8.25Z" transform="translate(-1154.066 -933.753)" fill="#512B2B"/>
    <path id="Path_23" data-name="Path 23" d="M314.562,1263.434H359v8.312a7.842,7.842,0,0,1-7.937,7.812H297v-71.684a8.829,8.829,0,0,1,8.875-8.875h53.185v7.937a7.842,7.842,0,0,1-7.937,7.812h-36.5v16.312h30.748A7.948,7.948,0,0,1,353.31,1239a7.842,7.842,0,0,1-7.937,7.812H314.624v16.562Z" transform="translate(0 -933.753)" fill="#512B2B"/>
    <path id="Path_24" data-name="Path 24" d="M5023.687,1217.935a26.471,26.471,0,0,1-1.937-9.875,25.207,25.207,0,0,1,1.938-9.812,26.277,26.277,0,0,1,14.375-14.437,26.472,26.472,0,0,1,9.875-1.937,25.292,25.292,0,0,1,9.875,1.937,8,8,0,0,0,3,.563,8.192,8.192,0,0,0,5.75-2.437l6.937-6.875a44.689,44.689,0,0,0-8.875-5.625l-.75-.375a41.414,41.414,0,0,0-15.812-3.062,42.386,42.386,0,0,0-15.812,3.062,41.991,41.991,0,0,0-26.249,39,42.629,42.629,0,0,0,3.063,15.812c.188.438.563,1.25.75,1.75a65.805,65.805,0,0,0,5.25,7.812s4.563-4.5,6.25-6.25a7.665,7.665,0,0,0,2.438-3.187,7.844,7.844,0,0,0,.063-6.062Zm63.122-25.749h0a38.593,38.593,0,0,0-3.937-6.937c-.125-.187-2.062-2.75-2-2.812l-6.875,6.937a8.08,8.08,0,0,0-2.437,5.75,8.492,8.492,0,0,0,.563,3,26.471,26.471,0,0,1,1.938,9.874,25.289,25.289,0,0,1-1.937,9.875,25.77,25.77,0,0,1-5.75,8.625,26.03,26.03,0,0,1-8.687,5.75,26.4,26.4,0,0,1-9.812,1.938,25.512,25.512,0,0,1-9.875-1.937,7.727,7.727,0,0,0-6.125.063,7.872,7.872,0,0,0-3.125,2.375c-1.562,1.5-6.437,6.437-6.437,6.437a42.152,42.152,0,0,0,9.25,5.75s.313.125.438.188a41.64,41.64,0,0,0,15.812,3.062,42.874,42.874,0,0,0,15.812-3.062,41.989,41.989,0,0,0,26.249-39,39.712,39.712,0,0,0-3.187-15.812Z" transform="translate(-4414.703 -902.816)" fill="#512B2B"/>
  </g>
</svg>
