<?xml version="1.0" encoding="UTF-8" standalone="no"?>
<svg
   xmlns:dc="http://purl.org/dc/elements/1.1/"
   xmlns:cc="http://creativecommons.org/ns#"
   xmlns:rdf="http://www.w3.org/1999/02/22-rdf-syntax-ns#"
   xmlns:svg="http://www.w3.org/2000/svg"
   xmlns="http://www.w3.org/2000/svg"
   xmlns:sodipodi="http://sodipodi.sourceforge.net/DTD/sodipodi-0.dtd"
   xmlns:inkscape="http://www.inkscape.org/namespaces/inkscape"
   version="1.1"
   height="24"
   viewBox="0 0 54 27"
   class="navigation__logo svg-icon svg-fill"
   id="svg1880"
   sodipodi:docname="Ica logo.svg"
   inkscape:version="0.92.4 (5da689c313, 2019-01-14)">
  <metadata
     id="metadata1886">
    <rdf:RDF>
      <cc:Work
         rdf:about="">
        <dc:format>image/svg+xml</dc:format>
        <dc:type
           rdf:resource="http://purl.org/dc/dcmitype/StillImage" />
        <dc:title></dc:title>
      </cc:Work>
    </rdf:RDF>
  </metadata>
  <defs
     id="defs1884" />
  <sodipodi:namedview
     pagecolor="#ffffff"
     bordercolor="#666666"
     borderopacity="1"
     objecttolerance="10"
     gridtolerance="10"
     guidetolerance="10"
     inkscape:pageopacity="0"
     inkscape:pageshadow="2"
     inkscape:window-width="725"
     inkscape:window-height="480"
     id="namedview1882"
     showgrid="false"
     inkscape:zoom="5.5555556"
     inkscape:cx="24.737525"
     inkscape:cy="13.5"
     inkscape:window-x="0"
     inkscape:window-y="0"
     inkscape:window-maximized="0"
     inkscape:current-layer="svg1880" />
  <path
     pid="0"
     _fill="#512B2B"
     d="M38.883 0L54 26.532h-7.65l-1.664-2.876h-7.614l2.66-4.674h2.292l-3.141-5.536-3.29 5.752c-.517.9-1.035 1.69-1.552 2.373C31.528 24.879 27.461 27 22.953 27c-7.577 0-13.75-6.004-13.75-13.374C9.203 6.256 15.376.25 22.953.25c2.587 0 4.916.684 6.949 1.834l-3.253 5.716a7.342 7.342 0 0 0-3.696-1.006c-3.881 0-7.023 3.056-7.023 6.83 0 3.776 3.142 6.832 7.023 6.832 2.106 0 3.844-.863 5.1-2.122.555-.539 1.183-1.438 1.368-1.761L38.883 0zM0 26.532V.72h6.727v25.813H0z"
     id="path1878"
     fill-rule="evenodd"
     style="fill:#512B2B;fill-opacity:1" />
</svg>
