<svg height="28" viewBox="0 0 93 27" fill="none" xmlns="http://www.w3.org/2000/svg">
<path d="M79.8284 0.000527344C73.9136 0.000527344 69.119 2.47185 67.3706 6.88521C65.6239 2.47185 60.8272 0.000527344 54.914 0.000527344C49.6591 0.000527344 45.2883 1.95201 43.153 5.48008C41.0161 1.95201 36.6461 0.000527344 31.3928 0.000527344C23.9174 0.000527344 18.2239 3.94741 18.2239 10.7774C18.2239 12.4986 18.5909 14.035 19.258 15.3718C19.1716 15.411 19.0876 15.4479 18.9993 15.4857C18.6589 15.6202 18.2874 15.7467 17.8798 15.8664C16.8466 16.1496 15.6836 16.3038 14.5164 16.3038C11.1253 16.3038 8.08289 14.1721 8.08289 10.8947C8.08289 7.34206 10.6921 5.21166 14.0815 5.21166C15.3728 5.21166 16.3677 5.28528 17.3881 5.65191C17.3881 5.65191 18.5556 3.10566 20.5168 1.63731C20.1424 1.46147 19.7468 1.28895 19.3235 1.1144L19.3227 1.11968C17.5548 0.349218 15.4891 0 13.1694 0C5.69305 0 0 3.94689 0 10.777C0 17.5672 5.69305 21.514 13.1694 21.514C15.1421 21.514 17.345 21.2294 19.2318 20.698C19.94 20.5286 21.5989 19.9581 22.8116 19.2585C25.0891 20.7291 28.064 21.514 31.3942 21.514C36.6481 21.514 41.0186 19.5629 43.1543 16.0485C45.2904 19.5638 49.6612 21.514 54.9152 21.514C60.1601 21.514 64.5246 19.5704 66.6641 16.0659V27H74.7097V20.817C76.2712 21.2752 77.9963 21.5146 79.8289 21.5146C87.306 21.5146 93 17.5675 93 10.7775C92.9989 3.9483 87.3053 0.00133945 79.8284 0.00133945V0.000527344ZM31.3928 16.5416C27.785 16.5416 26.3085 13.8171 26.3085 10.7774C26.3085 7.69836 27.7858 4.9739 31.3928 4.9739C35.0017 4.9739 36.4786 7.69836 36.4786 10.7774C36.4786 13.8171 35.0009 16.5416 31.3928 16.5416ZM54.914 16.5416C51.3064 16.5416 49.8283 13.8171 49.8283 10.7774C49.8283 7.69836 51.3064 4.9739 54.914 4.9739C58.5215 4.9739 59.9988 7.69836 59.9988 10.7774C59.9988 13.8171 58.5215 16.5416 54.914 16.5416ZM79.8284 16.5416C76.2222 16.5416 74.7424 13.8171 74.7424 10.7774C74.7424 7.69836 76.2231 4.9739 79.8284 4.9739C83.4373 4.9739 84.9142 7.69836 84.9142 10.7774C84.9142 13.8171 83.4373 16.5416 79.8284 16.5416Z" fill="#512B2B"/>
</svg>
