<svg width="159" height="242" viewBox="0 0 159 242" fill="none" xmlns="http://www.w3.org/2000/svg">
<rect width="159" height="242" rx="6" fill="white"/>
<path d="M13 19C13 17.8954 13.8954 17 15 17H146C147.105 17 148 17.8954 148 19V143C148 144.105 147.105 145 146 145H15C13.8954 145 13 144.105 13 143V19Z" fill="#F9F8F6"/>
<path d="M13 155C13 153.895 13.8954 153 15 153H146C147.105 153 148 153.895 148 155V175C148 176.105 147.105 177 146 177H15C13.8954 177 13 176.105 13 175V155Z" fill="#F9F8F6"/>
<path d="M13 187C13 185.895 13.8954 185 15 185H146C147.105 185 148 185.895 148 187V206C148 207.105 147.105 208 146 208H15C13.8954 208 13 207.105 13 206V187Z" fill="#F9F8F6"/>
<rect x="26" y="45" width="106" height="16" fill="white"/>
<rect x="26" y="69" width="106" height="16" fill="white"/>
<rect x="26" y="93" width="106" height="16" rx="2" fill="#72605E"/>
<path d="M72.832 103L71.092 100.048V103H70.396V98.8H71.14L72.892 101.764V98.8H73.576V103H72.832ZM74.9267 101.704C74.9747 101.92 75.0707 102.096 75.2147 102.232C75.3587 102.368 75.5467 102.436 75.7787 102.436C75.9147 102.436 76.0387 102.41 76.1507 102.358C76.2627 102.306 76.3867 102.222 76.5227 102.106L76.9487 102.598C76.8047 102.722 76.6327 102.828 76.4327 102.916C76.2367 103.004 76.0007 103.048 75.7247 103.048C75.4487 103.048 75.2107 103.002 75.0107 102.91C74.8147 102.814 74.6547 102.692 74.5307 102.544C74.4067 102.392 74.3147 102.224 74.2547 102.04C74.1987 101.852 74.1707 101.664 74.1707 101.476C74.1707 101.296 74.1987 101.114 74.2547 100.93C74.3107 100.746 74.3987 100.58 74.5187 100.432C74.6427 100.284 74.8027 100.164 74.9987 100.072C75.1947 99.976 75.4327 99.928 75.7127 99.928C75.9887 99.928 76.2187 99.974 76.4027 100.066C76.5867 100.158 76.7347 100.282 76.8467 100.438C76.9627 100.59 77.0447 100.768 77.0927 100.972C77.1407 101.176 77.1647 101.392 77.1647 101.62V101.704H74.9267ZM76.4327 101.194C76.4247 100.99 76.3527 100.826 76.2167 100.702C76.0807 100.574 75.9107 100.51 75.7067 100.51C75.6187 100.51 75.5327 100.524 75.4487 100.552C75.3647 100.576 75.2867 100.616 75.2147 100.672C75.1427 100.728 75.0827 100.8 75.0347 100.888C74.9867 100.972 74.9547 101.074 74.9387 101.194H76.4327ZM79.1976 103L78.6456 102.046L78.1236 103H77.3256L78.2676 101.398L77.4456 99.976H78.2496L78.6816 100.72L79.1076 99.976H79.8756L79.0536 101.368L80.0076 103H79.1976ZM82.2864 102.946C82.1824 102.982 82.0784 103.008 81.9744 103.024C81.8704 103.04 81.7724 103.048 81.6804 103.048C81.3604 103.048 81.1024 102.96 80.9064 102.784C80.7144 102.608 80.6184 102.34 80.6184 101.98V100.624H80.1564V99.976H80.6184V99.094L81.3804 98.998V99.976H82.1844V100.624H81.3804V101.836C81.3804 102.028 81.4244 102.174 81.5124 102.274C81.6004 102.37 81.7104 102.418 81.8424 102.418C81.8904 102.418 81.9364 102.412 81.9804 102.4C82.0244 102.388 82.0744 102.372 82.1304 102.352L82.2864 102.946Z" fill="white"/>
<rect x="26" y="116" width="87" height="4" fill="#EBE7E2"/>
<rect x="26" y="164" width="87" height="4" fill="#EBE7E2"/>
<rect x="26" y="193" width="87" height="4" fill="#EBE7E2"/>
<rect x="26" y="126" width="66" height="4" fill="#EBE7E2"/>
<path d="M34.132 52.928L33.178 53.174L33.802 53.948L33.4 54.236L32.86 53.402L32.326 54.236L31.924 53.936L32.548 53.174L31.594 52.928L31.75 52.454L32.668 52.814L32.62 51.824H33.118L33.058 52.814L33.982 52.454L34.132 52.928ZM37.8527 52.928L36.8987 53.174L37.5227 53.948L37.1207 54.236L36.5807 53.402L36.0467 54.236L35.6447 53.936L36.2687 53.174L35.3147 52.928L35.4707 52.454L36.3887 52.814L36.3407 51.824H36.8387L36.7787 52.814L37.7027 52.454L37.8527 52.928ZM41.5734 52.928L40.6194 53.174L41.2434 53.948L40.8414 54.236L40.3014 53.402L39.7674 54.236L39.3654 53.936L39.9894 53.174L39.0354 52.928L39.1914 52.454L40.1094 52.814L40.0614 51.824H40.5594L40.4994 52.814L41.4234 52.454L41.5734 52.928ZM45.2941 52.928L44.3401 53.174L44.9641 53.948L44.5621 54.236L44.0221 53.402L43.4881 54.236L43.0861 53.936L43.7101 53.174L42.7561 52.928L42.9121 52.454L43.8301 52.814L43.7821 51.824H44.2801L44.2201 52.814L45.1441 52.454L45.2941 52.928ZM49.0148 52.928L48.0608 53.174L48.6848 53.948L48.2828 54.236L47.7428 53.402L47.2088 54.236L46.8068 53.936L47.4308 53.174L46.4768 52.928L46.6328 52.454L47.5508 52.814L47.5028 51.824H48.0008L47.9408 52.814L48.8648 52.454L49.0148 52.928ZM56.4562 52.928L55.5022 53.174L56.1262 53.948L55.7242 54.236L55.1842 53.402L54.6502 54.236L54.2482 53.936L54.8722 53.174L53.9182 52.928L54.0742 52.454L54.9922 52.814L54.9442 51.824H55.4422L55.3822 52.814L56.3062 52.454L56.4562 52.928ZM60.1769 52.928L59.2229 53.174L59.8469 53.948L59.4449 54.236L58.9049 53.402L58.3709 54.236L57.9689 53.936L58.5929 53.174L57.6389 52.928L57.7949 52.454L58.7129 52.814L58.6649 51.824H59.1629L59.1029 52.814L60.0269 52.454L60.1769 52.928ZM63.8976 52.928L62.9436 53.174L63.5676 53.948L63.1656 54.236L62.6256 53.402L62.0916 54.236L61.6896 53.936L62.3136 53.174L61.3596 52.928L61.5156 52.454L62.4336 52.814L62.3856 51.824H62.8836L62.8236 52.814L63.7476 52.454L63.8976 52.928ZM67.6183 52.928L66.6643 53.174L67.2883 53.948L66.8863 54.236L66.3463 53.402L65.8123 54.236L65.4103 53.936L66.0343 53.174L65.0803 52.928L65.2363 52.454L66.1543 52.814L66.1063 51.824H66.6043L66.5443 52.814L67.4683 52.454L67.6183 52.928ZM71.339 52.928L70.385 53.174L71.009 53.948L70.607 54.236L70.067 53.402L69.533 54.236L69.131 53.936L69.755 53.174L68.801 52.928L68.957 52.454L69.875 52.814L69.827 51.824H70.325L70.265 52.814L71.189 52.454L71.339 52.928ZM75.0597 52.928L74.1057 53.174L74.7297 53.948L74.3277 54.236L73.7877 53.402L73.2537 54.236L72.8517 53.936L73.4757 53.174L72.5217 52.928L72.6777 52.454L73.5957 52.814L73.5477 51.824H74.0457L73.9857 52.814L74.9097 52.454L75.0597 52.928ZM78.7804 52.928L77.8264 53.174L78.4504 53.948L78.0484 54.236L77.5084 53.402L76.9744 54.236L76.5724 53.936L77.1964 53.174L76.2424 52.928L76.3984 52.454L77.3164 52.814L77.2684 51.824H77.7664L77.7064 52.814L78.6304 52.454L78.7804 52.928ZM82.5011 52.928L81.5471 53.174L82.1711 53.948L81.7691 54.236L81.2291 53.402L80.6951 54.236L80.2931 53.936L80.9171 53.174L79.9631 52.928L80.1191 52.454L81.0371 52.814L80.9891 51.824H81.4871L81.4271 52.814L82.3511 52.454L82.5011 52.928ZM86.2218 52.928L85.2678 53.174L85.8918 53.948L85.4898 54.236L84.9498 53.402L84.4158 54.236L84.0138 53.936L84.6378 53.174L83.6838 52.928L83.8398 52.454L84.7578 52.814L84.7098 51.824H85.2078L85.1478 52.814L86.0718 52.454L86.2218 52.928ZM89.9425 52.928L88.9885 53.174L89.6125 53.948L89.2105 54.236L88.6705 53.402L88.1365 54.236L87.7345 53.936L88.3585 53.174L87.4045 52.928L87.5605 52.454L88.4785 52.814L88.4305 51.824H88.9285L88.8685 52.814L89.7925 52.454L89.9425 52.928ZM93.6633 52.928L92.7093 53.174L93.3333 53.948L92.9313 54.236L92.3913 53.402L91.8573 54.236L91.4553 53.936L92.0793 53.174L91.1253 52.928L91.2812 52.454L92.1993 52.814L92.1513 51.824H92.6493L92.5893 52.814L93.5133 52.454L93.6633 52.928ZM97.384 52.928L96.43 53.174L97.054 53.948L96.652 54.236L96.112 53.402L95.578 54.236L95.176 53.936L95.8 53.174L94.846 52.928L95.002 52.454L95.92 52.814L95.872 51.824H96.37L96.31 52.814L97.234 52.454L97.384 52.928ZM101.105 52.928L100.151 53.174L100.775 53.948L100.373 54.236L99.8327 53.402L99.2987 54.236L98.8967 53.936L99.5207 53.174L98.5667 52.928L98.7227 52.454L99.6407 52.814L99.5927 51.824H100.091L100.031 52.814L100.955 52.454L101.105 52.928Z" fill="black"/>
<path d="M34.33 79H33.706L32.848 77.794L31.996 79H31.384L32.506 77.452L31.39 75.964H32.02L32.872 77.104L33.688 75.964H34.3L33.196 77.452L34.33 79ZM38.0507 79H37.4267L36.5687 77.794L35.7167 79H35.1047L36.2267 77.452L35.1107 75.964H35.7407L36.5927 77.104L37.4087 75.964H38.0207L36.9167 77.452L38.0507 79ZM45.4921 79H44.8681L44.0101 77.794L43.1581 79H42.5461L43.6681 77.452L42.5521 75.964H43.1821L44.0341 77.104L44.8501 75.964H45.4621L44.3581 77.452L45.4921 79ZM49.2128 79H48.5888L47.7308 77.794L46.8788 79H46.2668L47.3888 77.452L46.2728 75.964H46.9028L47.7548 77.104L48.5708 75.964H49.1828L48.0788 77.452L49.2128 79ZM52.9335 79H52.3095L51.4515 77.794L50.5995 79H49.9875L51.1095 77.452L49.9935 75.964H50.6235L51.4755 77.104L52.2915 75.964H52.9035L51.7995 77.452L52.9335 79ZM56.6542 79H56.0302L55.1722 77.794L54.3202 79H53.7082L54.8302 77.452L53.7142 75.964H54.3442L55.1962 77.104L56.0122 75.964H56.6242L55.5202 77.452L56.6542 79ZM64.0956 79H63.4716L62.6136 77.794L61.7616 79H61.1496L62.2716 77.452L61.1556 75.964H61.7856L62.6376 77.104L63.4536 75.964H64.0656L62.9616 77.452L64.0956 79ZM67.8163 79H67.1923L66.3343 77.794L65.4823 79H64.8703L65.9923 77.452L64.8763 75.964H65.5063L66.3583 77.104L67.1743 75.964H67.7863L66.6823 77.452L67.8163 79ZM71.537 79H70.913L70.055 77.794L69.203 79H68.591L69.713 77.452L68.597 75.964H69.227L70.079 77.104L70.895 75.964H71.507L70.403 77.452L71.537 79ZM75.2577 79H74.6337L73.7757 77.794L72.9237 79H72.3117L73.4337 77.452L72.3177 75.964H72.9477L73.7997 77.104L74.6157 75.964H75.2277L74.1237 77.452L75.2577 79ZM78.9784 79H78.3544L77.4964 77.794L76.6444 79H76.0324L77.1544 77.452L76.0384 75.964H76.6684L77.5204 77.104L78.3364 75.964H78.9484L77.8444 77.452L78.9784 79Z" fill="black"/>
<path d="M27.773 38V35.318L26.027 31.7H27.26L28.385 34.265L29.492 31.7H30.707L28.97 35.318V38H27.773ZM32.7415 38.072C32.3515 38.072 32.0095 38.009 31.7155 37.883C31.4275 37.757 31.1845 37.586 30.9865 37.37C30.7945 37.154 30.6475 36.905 30.5455 36.623C30.4495 36.341 30.4015 36.044 30.4015 35.732C30.4015 35.42 30.4495 35.123 30.5455 34.841C30.6475 34.559 30.7945 34.31 30.9865 34.094C31.1845 33.878 31.4275 33.707 31.7155 33.581C32.0095 33.455 32.3515 33.392 32.7415 33.392C33.1255 33.392 33.4645 33.455 33.7585 33.581C34.0525 33.707 34.2955 33.878 34.4875 34.094C34.6855 34.31 34.8325 34.559 34.9285 34.841C35.0305 35.123 35.0815 35.42 35.0815 35.732C35.0815 36.044 35.0305 36.341 34.9285 36.623C34.8325 36.905 34.6855 37.154 34.4875 37.37C34.2955 37.586 34.0525 37.757 33.7585 37.883C33.4645 38.009 33.1255 38.072 32.7415 38.072ZM32.7415 37.154C33.1375 37.154 33.4285 37.022 33.6145 36.758C33.8065 36.488 33.9025 36.146 33.9025 35.732C33.9025 35.318 33.8065 34.979 33.6145 34.715C33.4285 34.445 33.1375 34.31 32.7415 34.31C32.3455 34.31 32.0515 34.445 31.8595 34.715C31.6735 34.979 31.5805 35.318 31.5805 35.732C31.5805 36.146 31.6735 36.488 31.8595 36.758C32.0515 37.022 32.3455 37.154 32.7415 37.154ZM38.8519 38C38.8279 37.88 38.8129 37.763 38.8069 37.649C38.8009 37.535 38.7949 37.43 38.7889 37.334C38.6029 37.598 38.3869 37.79 38.1409 37.91C37.9009 38.024 37.6399 38.081 37.3579 38.081C36.9019 38.081 36.5389 37.937 36.2689 37.649C35.9989 37.355 35.8639 36.944 35.8639 36.416V33.464H37.0069V36.227C37.0069 36.515 37.0849 36.74 37.2409 36.902C37.3969 37.064 37.6009 37.145 37.8529 37.145C38.1589 37.145 38.3929 36.998 38.5549 36.704C38.7229 36.41 38.8069 35.996 38.8069 35.462V33.464H39.9499V38H38.8519ZM40.961 38V33.464H42.041C42.065 33.596 42.08 33.731 42.086 33.869C42.098 34.007 42.107 34.136 42.113 34.256C42.323 33.938 42.557 33.716 42.815 33.59C43.079 33.458 43.322 33.392 43.544 33.392C43.61 33.392 43.694 33.398 43.796 33.41C43.904 33.416 44.003 33.428 44.093 33.446L43.877 34.589C43.781 34.565 43.697 34.55 43.625 34.544C43.553 34.538 43.49 34.535 43.436 34.535C43.232 34.535 43.049 34.568 42.887 34.634C42.725 34.7 42.584 34.811 42.464 34.967C42.35 35.117 42.26 35.318 42.194 35.57C42.134 35.822 42.104 36.131 42.104 36.497V38H40.961ZM46.8059 38V33.464H47.9489V38H46.8059ZM48.0479 32.051C48.0479 32.237 47.9819 32.396 47.8499 32.528C47.7179 32.654 47.5589 32.717 47.3729 32.717C47.1869 32.717 47.0279 32.654 46.8959 32.528C46.7699 32.396 46.7069 32.237 46.7069 32.051C46.7069 31.865 46.7699 31.706 46.8959 31.574C47.0279 31.442 47.1869 31.376 47.3729 31.376C47.5589 31.376 47.7179 31.442 47.8499 31.574C47.9819 31.706 48.0479 31.865 48.0479 32.051ZM51.9849 38V35.237C51.9849 34.949 51.9069 34.724 51.7509 34.562C51.5949 34.4 51.3909 34.319 51.1389 34.319C50.8089 34.319 50.5509 34.466 50.3649 34.76C50.1849 35.054 50.0949 35.468 50.0949 36.002V38H48.9519V33.464H50.0499C50.0739 33.584 50.0889 33.701 50.0949 33.815C50.1009 33.929 50.1069 34.034 50.1129 34.13C50.3109 33.866 50.5389 33.677 50.7969 33.563C51.0549 33.443 51.3339 33.383 51.6339 33.383C52.0899 33.383 52.4529 33.53 52.7229 33.824C52.9929 34.112 53.1279 34.52 53.1279 35.048V38H51.9849ZM54.4162 38V34.436H53.8402V33.464H54.4162V33.086C54.4162 32.816 54.4552 32.579 54.5332 32.375C54.6172 32.171 54.7312 32 54.8752 31.862C55.0252 31.724 55.1992 31.622 55.3972 31.556C55.6012 31.484 55.8232 31.448 56.0632 31.448C56.3572 31.448 56.6392 31.493 56.9092 31.583L56.6752 32.474C56.5852 32.444 56.4982 32.42 56.4142 32.402C56.3302 32.378 56.2462 32.366 56.1622 32.366C55.9702 32.366 55.8202 32.432 55.7122 32.564C55.6102 32.69 55.5592 32.867 55.5592 33.095V33.464H56.5312V34.436H55.5592V38H54.4162ZM59.2669 38.072C58.8769 38.072 58.5349 38.009 58.2409 37.883C57.9529 37.757 57.7099 37.586 57.5119 37.37C57.3199 37.154 57.1729 36.905 57.0709 36.623C56.9749 36.341 56.9269 36.044 56.9269 35.732C56.9269 35.42 56.9749 35.123 57.0709 34.841C57.1729 34.559 57.3199 34.31 57.5119 34.094C57.7099 33.878 57.9529 33.707 58.2409 33.581C58.5349 33.455 58.8769 33.392 59.2669 33.392C59.6509 33.392 59.9899 33.455 60.2839 33.581C60.5779 33.707 60.8209 33.878 61.0129 34.094C61.2109 34.31 61.3579 34.559 61.4539 34.841C61.5559 35.123 61.6069 35.42 61.6069 35.732C61.6069 36.044 61.5559 36.341 61.4539 36.623C61.3579 36.905 61.2109 37.154 61.0129 37.37C60.8209 37.586 60.5779 37.757 60.2839 37.883C59.9899 38.009 59.6509 38.072 59.2669 38.072ZM59.2669 37.154C59.6629 37.154 59.9539 37.022 60.1399 36.758C60.3319 36.488 60.4279 36.146 60.4279 35.732C60.4279 35.318 60.3319 34.979 60.1399 34.715C59.9539 34.445 59.6629 34.31 59.2669 34.31C58.8709 34.31 58.5769 34.445 58.3849 34.715C58.1989 34.979 58.1059 35.318 58.1059 35.732C58.1059 36.146 58.1989 36.488 58.3849 36.758C58.5769 37.022 58.8709 37.154 59.2669 37.154ZM62.3623 38V33.464H63.4423C63.4663 33.596 63.4813 33.731 63.4873 33.869C63.4993 34.007 63.5083 34.136 63.5143 34.256C63.7243 33.938 63.9583 33.716 64.2163 33.59C64.4803 33.458 64.7233 33.392 64.9453 33.392C65.0113 33.392 65.0953 33.398 65.1973 33.41C65.3053 33.416 65.4043 33.428 65.4943 33.446L65.2783 34.589C65.1823 34.565 65.0983 34.55 65.0263 34.544C64.9543 34.538 64.8913 34.535 64.8373 34.535C64.6333 34.535 64.4503 34.568 64.2883 34.634C64.1263 34.7 63.9853 34.811 63.8653 34.967C63.7513 35.117 63.6613 35.318 63.5953 35.57C63.5353 35.822 63.5053 36.131 63.5053 36.497V38H62.3623ZM71.7702 38V35.237C71.7702 34.949 71.6892 34.724 71.5272 34.562C71.3712 34.4 71.1792 34.319 70.9512 34.319C70.6632 34.319 70.4442 34.454 70.2942 34.724C70.1502 34.988 70.0722 35.363 70.0602 35.849V38H68.9172V35.237C68.9172 34.949 68.8362 34.724 68.6742 34.562C68.5182 34.4 68.3262 34.319 68.0982 34.319C67.7982 34.319 67.5732 34.466 67.4232 34.76C67.2792 35.054 67.2072 35.468 67.2072 36.002V38H66.0642V33.464H67.1622C67.1862 33.584 67.2012 33.701 67.2072 33.815C67.2132 33.929 67.2192 34.034 67.2252 34.13C67.4112 33.848 67.6182 33.653 67.8462 33.545C68.0802 33.437 68.3232 33.383 68.5752 33.383C68.9172 33.383 69.1992 33.461 69.4212 33.617C69.6492 33.767 69.8202 33.968 69.9342 34.22C70.1622 33.914 70.4082 33.698 70.6722 33.572C70.9422 33.446 71.2062 33.383 71.4642 33.383C71.6742 33.383 71.8662 33.422 72.0402 33.5C72.2202 33.572 72.3732 33.68 72.4992 33.824C72.6312 33.962 72.7332 34.136 72.8052 34.346C72.8772 34.55 72.9132 34.784 72.9132 35.048V38H71.7702ZM76.1984 36.074H75.5864C75.0224 36.074 74.7404 36.266 74.7404 36.65C74.7404 36.752 74.7584 36.839 74.7944 36.911C74.8364 36.977 74.8874 37.034 74.9474 37.082C75.0134 37.124 75.0824 37.154 75.1544 37.172C75.2324 37.19 75.3074 37.199 75.3794 37.199C75.5114 37.199 75.6284 37.172 75.7304 37.118C75.8324 37.058 75.9164 36.983 75.9824 36.893C76.0544 36.797 76.1084 36.689 76.1444 36.569C76.1804 36.443 76.1984 36.314 76.1984 36.182V36.074ZM76.2614 38C76.2494 37.922 76.2374 37.838 76.2254 37.748C76.2134 37.658 76.2044 37.565 76.1984 37.469C76.0064 37.691 75.8054 37.85 75.5954 37.946C75.3914 38.036 75.1844 38.081 74.9744 38.081C74.8064 38.081 74.6384 38.054 74.4704 38C74.3084 37.946 74.1614 37.865 74.0294 37.757C73.8974 37.643 73.7894 37.502 73.7054 37.334C73.6274 37.16 73.5884 36.959 73.5884 36.731C73.5884 36.293 73.7504 35.954 74.0744 35.714C74.3984 35.474 74.8814 35.354 75.5234 35.354H76.1984V35.183C76.1984 34.895 76.1234 34.679 75.9734 34.535C75.8234 34.385 75.6044 34.31 75.3164 34.31C75.1184 34.31 74.9324 34.343 74.7584 34.409C74.5844 34.469 74.4074 34.55 74.2274 34.652L73.8854 33.878C74.1254 33.722 74.3774 33.602 74.6414 33.518C74.9114 33.428 75.1994 33.383 75.5054 33.383C75.7634 33.383 76.0034 33.419 76.2254 33.491C76.4474 33.563 76.6394 33.677 76.8014 33.833C76.9694 33.989 77.1014 34.196 77.1974 34.454C77.2934 34.712 77.3414 35.024 77.3414 35.39V38H76.2614ZM81.08 37.919C80.924 37.973 80.768 38.012 80.612 38.036C80.456 38.06 80.309 38.072 80.171 38.072C79.691 38.072 79.304 37.94 79.01 37.676C78.722 37.412 78.578 37.01 78.578 36.47V34.436H77.885V33.464H78.578V32.141L79.721 31.997V33.464H80.927V34.436H79.721V36.254C79.721 36.542 79.787 36.761 79.919 36.911C80.051 37.055 80.216 37.127 80.414 37.127C80.486 37.127 80.555 37.118 80.621 37.1C80.687 37.082 80.762 37.058 80.846 37.028L81.08 37.919ZM81.76 38V33.464H82.903V38H81.76ZM83.002 32.051C83.002 32.237 82.936 32.396 82.804 32.528C82.672 32.654 82.513 32.717 82.327 32.717C82.141 32.717 81.982 32.654 81.85 32.528C81.724 32.396 81.661 32.237 81.661 32.051C81.661 31.865 81.724 31.706 81.85 31.574C81.982 31.442 82.141 31.376 82.327 31.376C82.513 31.376 82.672 31.442 82.804 31.574C82.936 31.706 83.002 31.865 83.002 32.051ZM86.012 38.072C85.622 38.072 85.28 38.009 84.986 37.883C84.698 37.757 84.455 37.586 84.257 37.37C84.065 37.154 83.918 36.905 83.816 36.623C83.72 36.341 83.672 36.044 83.672 35.732C83.672 35.42 83.72 35.123 83.816 34.841C83.918 34.559 84.065 34.31 84.257 34.094C84.455 33.878 84.698 33.707 84.986 33.581C85.28 33.455 85.622 33.392 86.012 33.392C86.396 33.392 86.735 33.455 87.029 33.581C87.323 33.707 87.566 33.878 87.758 34.094C87.956 34.31 88.103 34.559 88.199 34.841C88.301 35.123 88.352 35.42 88.352 35.732C88.352 36.044 88.301 36.341 88.199 36.623C88.103 36.905 87.956 37.154 87.758 37.37C87.566 37.586 87.323 37.757 87.029 37.883C86.735 38.009 86.396 38.072 86.012 38.072ZM86.012 37.154C86.408 37.154 86.699 37.022 86.885 36.758C87.077 36.488 87.173 36.146 87.173 35.732C87.173 35.318 87.077 34.979 86.885 34.715C86.699 34.445 86.408 34.31 86.012 34.31C85.616 34.31 85.322 34.445 85.13 34.715C84.944 34.979 84.851 35.318 84.851 35.732C84.851 36.146 84.944 36.488 85.13 36.758C85.322 37.022 85.616 37.154 86.012 37.154ZM92.2124 38V35.237C92.2124 34.949 92.1344 34.724 91.9784 34.562C91.8224 34.4 91.6184 34.319 91.3664 34.319C91.0364 34.319 90.7784 34.466 90.5924 34.76C90.4124 35.054 90.3224 35.468 90.3224 36.002V38H89.1794V33.464H90.2774C90.3014 33.584 90.3164 33.701 90.3224 33.815C90.3284 33.929 90.3344 34.034 90.3404 34.13C90.5384 33.866 90.7664 33.677 91.0244 33.563C91.2824 33.443 91.5614 33.383 91.8614 33.383C92.3174 33.383 92.6804 33.53 92.9504 33.824C93.2204 34.112 93.3554 34.52 93.3554 35.048V38H92.2124Z" fill="#512B2B"/>
<rect x="45" y="227" width="68" height="2" rx="1" fill="#E3E3E3"/>
</svg>
